# xmcd
#
# Track frame offsets:
#	150
#	14070
#	30244
#	43716
#	62133
#	74408
#	86977
#	107020
#	118989
#	130769
#	147677
#	164400
#	178223
#
# Disc length: 2589 seconds
#
# Revision: 0
# Processed by: cddbd v1.5.2PL0 Copyright (c) Steve Scherf et al.
# Submitted via: EasyCDDAExtractor 16.0.1.1
#
DISCID=c70a1b0d
DTITLE=Jesse Bryant - The Last Real Outlaw
DYEAR=2007
DGENRE=Country
TTITLE0=Honky Tonkin' In My Veins
TTITLE1=The Last Real Cowboy
TTITLE2=I'll Be Over You
TTITLE3=Drinking Her Off My Mind
TTITLE4=I Can't Get Ahead
TTITLE5=Good Ole Boys Like Me
TTITLE6=Mistakes I've Made
TTITLE7=Poor Man's Blues
TTITLE8=A Mounth Of Sundays
TTITLE9=Outlaw On The Run
TTITLE10=Love Don't Live Here Anymore
TTITLE11=Southern Born  Southern Bred
TTITLE12=Those Ole Memories
EXTD=
EXTT0=
EXTT1=
EXTT2=
EXTT3=
EXTT4=
EXTT5=
EXTT6=
EXTT7=
EXTT8=
EXTT9=
EXTT10=
EXTT11=
EXTT12=
PLAYORDER=
